<?xml version="1.0" encoding="us-ascii" standalone="no"?><svg xmlns="http://www.w3.org/2000/svg" xmlns:xlink="http://www.w3.org/1999/xlink" contentStyleType="text/css" height="1157px" preserveAspectRatio="none" style="width:1065px;height:1157px;background:#FFFFFF;" version="1.1" viewBox="0 0 1065 1157" width="1065px" zoomAndPan="magnify"><defs/><g><text fill="#000000" font-family="sans-serif" font-size="14" font-weight="bold" lengthAdjust="spacing" textLength="100" x="478.5" y="28.5352">Mobile Bridge</text><rect fill="#FFFFFF" height="922.6953" style="stroke:#808080;stroke-width:1.0;" width="10" x="37.5" y="165.0859"/><rect fill="#FFFFFF" height="820.7637" style="stroke:#808080;stroke-width:1.0;" width="10" x="148" y="223.707"/><rect fill="#FFFFFF" height="762.1426" style="stroke:#808080;stroke-width:1.0;" width="10" x="372" y="253.0176"/><rect fill="#FFFFFF" height="864.0742" style="stroke:#808080;stroke-width:1.0;" width="10" x="581" y="194.3965"/><rect fill="none" height="89.9316" style="stroke:#000000;stroke-width:1.5;" width="752" x="296" y="340.6387"/><rect fill="none" height="60.6211" style="stroke:#000000;stroke-width:1.5;" width="547.5" x="500.5" y="926.2285"/><line style="stroke:#808080;stroke-width:0.5;stroke-dasharray:4.0,4.0;" x1="42" x2="42" y1="90.4648" y2="1105.7813"/><line style="stroke:#778899;stroke-width:0.5;stroke-dasharray:4.0,4.0;" x1="153" x2="153" y1="90.4648" y2="1105.7813"/><line style="stroke:#778899;stroke-width:0.5;stroke-dasharray:4.0,4.0;" x1="377" x2="377" y1="90.4648" y2="1105.7813"/><line style="stroke:#778899;stroke-width:0.5;stroke-dasharray:4.0,4.0;" x1="585.5" x2="585.5" y1="90.4648" y2="1105.7813"/><line style="stroke:#A9A9A9;stroke-width:0.5;stroke-dasharray:4.0,4.0;" x1="946" x2="946" y1="90.4648" y2="1105.7813"/><rect fill="#E2E2F0" height="46.9766" rx="2.5" ry="2.5" style="stroke:#181818;stroke-width:0.5;" width="75" x="5" y="42.4883"/><text fill="#000000" font-family="sans-serif" font-size="14" font-style="italic" lengthAdjust="spacing" textLength="61" x="12" y="63.0234">&#171;system&#187;</text><text fill="#000000" font-family="sans-serif" font-size="14" lengthAdjust="spacing" textLength="29" x="28" y="79.5117">TUN</text><rect fill="#E2E2F0" height="46.9766" rx="2.5" ry="2.5" style="stroke:#181818;stroke-width:0.5;" width="75" x="5" y="1104.7813"/><text fill="#000000" font-family="sans-serif" font-size="14" font-style="italic" lengthAdjust="spacing" textLength="61" x="12" y="1125.3164">&#171;system&#187;</text><text fill="#000000" font-family="sans-serif" font-size="14" lengthAdjust="spacing" textLength="29" x="28" y="1141.8047">TUN</text><rect fill="#E0FFFF" height="46.9766" rx="2.5" ry="2.5" style="stroke:#778899;stroke-width:0.5;" width="126" x="90" y="42.4883"/><text fill="#000000" font-family="sans-serif" font-size="14" font-style="italic" lengthAdjust="spacing" textLength="61" x="122.5" y="63.0234">&#171;engine&#187;</text><text fill="#000000" font-family="sans-serif" font-size="14" lengthAdjust="spacing" textLength="112" x="97" y="79.5117">SessionManager</text><rect fill="#E0FFFF" height="46.9766" rx="2.5" ry="2.5" style="stroke:#778899;stroke-width:0.5;" width="126" x="90" y="1104.7813"/><text fill="#000000" font-family="sans-serif" font-size="14" font-style="italic" lengthAdjust="spacing" textLength="61" x="122.5" y="1125.3164">&#171;engine&#187;</text><text fill="#000000" font-family="sans-serif" font-size="14" lengthAdjust="spacing" textLength="112" x="97" y="1141.8047">SessionManager</text><rect fill="#E0FFFF" height="46.9766" rx="2.5" ry="2.5" style="stroke:#778899;stroke-width:0.5;" width="142" x="306" y="42.4883"/><text fill="#000000" font-family="sans-serif" font-size="14" font-style="italic" lengthAdjust="spacing" textLength="61" x="346.5" y="63.0234">&#171;engine&#187;</text><text fill="#000000" font-family="sans-serif" font-size="14" lengthAdjust="spacing" textLength="128" x="313" y="79.5117">TransportManager</text><rect fill="#E0FFFF" height="46.9766" rx="2.5" ry="2.5" style="stroke:#778899;stroke-width:0.5;" width="142" x="306" y="1104.7813"/><text fill="#000000" font-family="sans-serif" font-size="14" font-style="italic" lengthAdjust="spacing" textLength="61" x="346.5" y="1125.3164">&#171;engine&#187;</text><text fill="#000000" font-family="sans-serif" font-size="14" lengthAdjust="spacing" textLength="128" x="313" y="1141.8047">TransportManager</text><rect fill="#E0FFFF" height="46.9766" rx="2.5" ry="2.5" style="stroke:#778899;stroke-width:0.5;" width="151" x="510.5" y="42.4883"/><text fill="#000000" font-family="sans-serif" font-size="14" font-style="italic" lengthAdjust="spacing" textLength="61" x="555.5" y="63.0234">&#171;engine&#187;</text><text fill="#000000" font-family="sans-serif" font-size="14" lengthAdjust="spacing" textLength="137" x="517.5" y="79.5117">MobileBridgeEngine</text><rect fill="#E0FFFF" height="46.9766" rx="2.5" ry="2.5" style="stroke:#778899;stroke-width:0.5;" width="151" x="510.5" y="1104.7813"/><text fill="#000000" font-family="sans-serif" font-size="14" font-style="italic" lengthAdjust="spacing" textLength="61" x="555.5" y="1125.3164">&#171;engine&#187;</text><text fill="#000000" font-family="sans-serif" font-size="14" lengthAdjust="spacing" textLength="137" x="517.5" y="1141.8047">MobileBridgeEngine</text><rect fill="#F5F5F5" height="46.9766" rx="2.5" ry="2.5" style="stroke:#A9A9A9;stroke-width:0.5;" width="184" x="854" y="42.4883"/><text fill="#000000" font-family="sans-serif" font-size="14" font-style="italic" lengthAdjust="spacing" textLength="73" x="909.5" y="63.0234">&#171;platform&#187;</text><text fill="#000000" font-family="sans-serif" font-size="14" lengthAdjust="spacing" textLength="170" x="861" y="79.5117">Platform Implementation</text><rect fill="#F5F5F5" height="46.9766" rx="2.5" ry="2.5" style="stroke:#A9A9A9;stroke-width:0.5;" width="184" x="854" y="1104.7813"/><text fill="#000000" font-family="sans-serif" font-size="14" font-style="italic" lengthAdjust="spacing" textLength="73" x="909.5" y="1125.3164">&#171;platform&#187;</text><text fill="#000000" font-family="sans-serif" font-size="14" lengthAdjust="spacing" textLength="170" x="861" y="1141.8047">Platform Implementation</text><rect fill="#FFFFFF" height="922.6953" style="stroke:#808080;stroke-width:1.0;" width="10" x="37.5" y="165.0859"/><rect fill="#FFFFFF" height="820.7637" style="stroke:#808080;stroke-width:1.0;" width="10" x="148" y="223.707"/><rect fill="#FFFFFF" height="762.1426" style="stroke:#808080;stroke-width:1.0;" width="10" x="372" y="253.0176"/><rect fill="#FFFFFF" height="864.0742" style="stroke:#808080;stroke-width:1.0;" width="10" x="581" y="194.3965"/><rect fill="#EEEEEE" height="3" style="stroke:#EEEEEE;stroke-width:1.0;" width="1058" x="0" y="121.1201"/><line style="stroke:#000000;stroke-width:1.0;" x1="0" x2="1058" y1="121.1201" y2="121.1201"/><line style="stroke:#000000;stroke-width:1.0;" x1="0" x2="1058" y1="124.1201" y2="124.1201"/><rect fill="#EEEEEE" height="23.3105" style="stroke:#000000;stroke-width:2.0;" width="148" x="455" y="110.4648"/><text fill="#000000" font-family="sans-serif" font-size="13" font-weight="bold" lengthAdjust="spacing" textLength="130" x="461" y="127.0332">Start mobile bridge</text><polygon fill="#000000" points="58.5,161.0859,48.5,165.0859,58.5,169.0859,54.5,165.0859" style="stroke:#000000;stroke-width:1.0;"/><line style="stroke:#000000;stroke-width:1.0;" x1="52.5" x2="945" y1="165.0859" y2="165.0859"/><text fill="#000000" font-family="sans-serif" font-size="13" lengthAdjust="spacing" textLength="31" x="908" y="160.3438">open</text><polygon fill="#000000" points="602,190.3965,592,194.3965,602,198.3965,598,194.3965" style="stroke:#000000;stroke-width:1.0;"/><line style="stroke:#000000;stroke-width:1.0;" x1="596" x2="945" y1="194.3965" y2="194.3965"/><text fill="#000000" font-family="sans-serif" font-size="13" lengthAdjust="spacing" textLength="154" x="785" y="189.6543">StartMobileBridge(tunFd)</text><polygon fill="#000000" points="169,219.707,159,223.707,169,227.707,165,223.707" style="stroke:#000000;stroke-width:1.0;"/><line style="stroke:#000000;stroke-width:1.0;" x1="163" x2="580" y1="223.707" y2="223.707"/><text fill="#000000" font-family="sans-serif" font-size="13" lengthAdjust="spacing" textLength="73" x="501" y="218.9648">start(tunFd)</text><polygon fill="#000000" points="393,249.0176,383,253.0176,393,257.0176,389,253.0176" style="stroke:#000000;stroke-width:1.0;"/><line style="stroke:#000000;stroke-width:1.0;" x1="387" x2="580" y1="253.0176" y2="253.0176"/><text fill="#000000" font-family="sans-serif" font-size="13" lengthAdjust="spacing" textLength="38" x="536" y="248.2754">create</text><polygon fill="#000000" points="934,263.0176,944,267.0176,934,271.0176,938,267.0176" style="stroke:#000000;stroke-width:1.0;"/><line style="stroke:#000000;stroke-width:1.0;stroke-dasharray:2.0,2.0;" x1="591" x2="940" y1="267.0176" y2="267.0176"/><polygon fill="#000000" points="934,292.3281,944,296.3281,934,300.3281,938,296.3281" style="stroke:#000000;stroke-width:1.0;"/><line style="stroke:#000000;stroke-width:1.0;" x1="591" x2="940" y1="296.3281" y2="296.3281"/><text fill="#000000" font-family="sans-serif" font-size="13" lengthAdjust="spacing" textLength="89" x="598" y="291.5859">GetTransports</text><polygon fill="#000000" points="602,321.6387,592,325.6387,602,329.6387,598,325.6387" style="stroke:#000000;stroke-width:1.0;"/><line style="stroke:#000000;stroke-width:1.0;stroke-dasharray:2.0,2.0;" x1="596" x2="945" y1="325.6387" y2="325.6387"/><text fill="#000000" font-family="sans-serif" font-size="13" lengthAdjust="spacing" textLength="106" x="833" y="320.8965">list of transports</text><path d="M296,340.6387 L370,340.6387 L370,347.9492 L360,357.9492 L296,357.9492 L296,340.6387 " fill="#EEEEEE" style="stroke:#000000;stroke-width:1.5;"/><rect fill="none" height="89.9316" style="stroke:#000000;stroke-width:1.5;" width="752" x="296" y="340.6387"/><text fill="#000000" font-family="sans-serif" font-size="13" font-weight="bold" lengthAdjust="spacing" textLength="29" x="311" y="354.207">loop</text><text fill="#000000" font-family="sans-serif" font-size="11" font-weight="bold" lengthAdjust="spacing" textLength="156" x="385" y="353.2734">[until the end of transports]</text><polygon fill="#000000" points="934,375.2598,944,379.2598,934,383.2598,938,379.2598" style="stroke:#000000;stroke-width:1.0;"/><line style="stroke:#000000;stroke-width:1.0;" x1="591" x2="940" y1="379.2598" y2="379.2598"/><text fill="#000000" font-family="sans-serif" font-size="13" lengthAdjust="spacing" textLength="331" x="598" y="374.5176">Connect(transportId, inputStreamId, outputStreamId)</text><polygon fill="#000000" points="602,389.2598,592,393.2598,602,397.2598,598,393.2598" style="stroke:#000000;stroke-width:1.0;"/><line style="stroke:#000000;stroke-width:1.0;stroke-dasharray:2.0,2.0;" x1="596" x2="945" y1="393.2598" y2="393.2598"/><polygon fill="#000000" points="393,418.5703,383,422.5703,393,426.5703,389,422.5703" style="stroke:#000000;stroke-width:1.0;"/><line style="stroke:#000000;stroke-width:1.0;" x1="387" x2="580" y1="422.5703" y2="422.5703"/><text fill="#000000" font-family="sans-serif" font-size="13" lengthAdjust="spacing" textLength="175" x="399" y="417.8281">registerTransport(transport)</text><polygon fill="#000000" points="934,454.8809,944,458.8809,934,462.8809,938,458.8809" style="stroke:#000000;stroke-width:1.0;"/><line style="stroke:#000000;stroke-width:1.0;" x1="382" x2="940" y1="458.8809" y2="458.8809"/><text fill="#000000" font-family="sans-serif" font-size="13" lengthAdjust="spacing" textLength="243" x="389" y="454.1387">OnActiveTransportChange(transportId)</text><rect fill="#EEEEEE" height="3" style="stroke:#EEEEEE;stroke-width:1.0;" width="1058" x="0" y="487.5361"/><line style="stroke:#000000;stroke-width:1.0;" x1="0" x2="1058" y1="487.5361" y2="487.5361"/><line style="stroke:#000000;stroke-width:1.0;" x1="0" x2="1058" y1="490.5361" y2="490.5361"/><rect fill="#EEEEEE" height="23.3105" style="stroke:#000000;stroke-width:2.0;" width="281" x="388.5" y="476.8809"/><text fill="#000000" font-family="sans-serif" font-size="13" font-weight="bold" lengthAdjust="spacing" textLength="263" x="394.5" y="493.4492">Device handshaking and authorization</text><polygon fill="#000000" points="393,527.502,383,531.502,393,535.502,389,531.502" style="stroke:#000000;stroke-width:1.0;"/><polygon fill="#000000" points="934,527.502,944,531.502,934,535.502,938,531.502" style="stroke:#000000;stroke-width:1.0;"/><line style="stroke:#000000;stroke-width:1.0;" x1="387" x2="940" y1="531.502" y2="531.502"/><text fill="#000000" font-family="sans-serif" font-size="13" lengthAdjust="spacing" textLength="268" x="530" y="526.7598">handshaking through input/output stream</text><polygon fill="#000000" points="934,556.8125,944,560.8125,934,564.8125,938,560.8125" style="stroke:#000000;stroke-width:1.0;"/><line style="stroke:#000000;stroke-width:1.0;" x1="382" x2="940" y1="560.8125" y2="560.8125"/><text fill="#000000" font-family="sans-serif" font-size="13" lengthAdjust="spacing" textLength="216" x="389" y="556.0703">OnDeviceHandshaked(transportId)</text><polygon fill="#000000" points="393,586.123,383,590.123,393,594.123,389,590.123" style="stroke:#000000;stroke-width:1.0;"/><line style="stroke:#000000;stroke-width:1.0;" x1="387" x2="945" y1="590.123" y2="590.123"/><text fill="#000000" font-family="sans-serif" font-size="13" lengthAdjust="spacing" textLength="189" x="750" y="585.3809">AuthorizedDevice(transportId)</text><rect fill="#EEEEEE" height="3" style="stroke:#EEEEEE;stroke-width:1.0;" width="1058" x="0" y="618.7783"/><line style="stroke:#000000;stroke-width:1.0;" x1="0" x2="1058" y1="618.7783" y2="618.7783"/><line style="stroke:#000000;stroke-width:1.0;" x1="0" x2="1058" y1="621.7783" y2="621.7783"/><rect fill="#EEEEEE" height="23.3105" style="stroke:#000000;stroke-width:2.0;" width="122" x="468" y="608.123"/><text fill="#000000" font-family="sans-serif" font-size="13" font-weight="bold" lengthAdjust="spacing" textLength="104" x="474" y="624.6914">Data streaming</text><polygon fill="#000000" points="136,658.7441,146,662.7441,136,666.7441,140,662.7441" style="stroke:#000000;stroke-width:1.0;"/><line style="stroke:#000000;stroke-width:1.0;" x1="47.5" x2="142" y1="662.7441" y2="662.7441"/><text fill="#000000" font-family="sans-serif" font-size="13" lengthAdjust="spacing" textLength="64" x="54.5" y="658.002">IP packets</text><polygon fill="#000000" points="934,688.0547,944,692.0547,934,696.0547,938,692.0547" style="stroke:#000000;stroke-width:1.0;"/><line style="stroke:#000000;stroke-width:1.0;" x1="158" x2="940" y1="692.0547" y2="692.0547"/><text fill="#000000" font-family="sans-serif" font-size="13" lengthAdjust="spacing" textLength="136" x="165" y="687.3125">ProtectSocket(socket)</text><polygon fill="#000000" points="360,717.3652,370,721.3652,360,725.3652,364,721.3652" style="stroke:#000000;stroke-width:1.0;"/><line style="stroke:#000000;stroke-width:1.0;" x1="158" x2="366" y1="721.3652" y2="721.3652"/><text fill="#000000" font-family="sans-serif" font-size="13" lengthAdjust="spacing" textLength="188" x="165" y="716.623">outgoing data through socket</text><polygon fill="#000000" points="934,746.6758,944,750.6758,934,754.6758,938,750.6758" style="stroke:#000000;stroke-width:1.0;"/><line style="stroke:#000000;stroke-width:1.0;" x1="382" x2="940" y1="750.6758" y2="750.6758"/><text fill="#000000" font-family="sans-serif" font-size="13" lengthAdjust="spacing" textLength="377" x="389" y="745.9336">write outgoing data to output stream of the active transport</text><polygon fill="#000000" points="393,775.9863,383,779.9863,393,783.9863,389,779.9863" style="stroke:#000000;stroke-width:1.0;"/><line style="stroke:#000000;stroke-width:1.0;" x1="387" x2="945" y1="779.9863" y2="779.9863"/><text fill="#000000" font-family="sans-serif" font-size="13" lengthAdjust="spacing" textLength="383" x="556" y="775.2441">read incoming data from input stream of the active transport</text><polygon fill="#000000" points="169,805.2969,159,809.2969,169,813.2969,165,809.2969" style="stroke:#000000;stroke-width:1.0;"/><line style="stroke:#000000;stroke-width:1.0;" x1="163" x2="371" y1="809.2969" y2="809.2969"/><text fill="#000000" font-family="sans-serif" font-size="13" lengthAdjust="spacing" textLength="190" x="175" y="804.5547">incoming data through socket</text><polygon fill="#000000" points="58.5,834.6074,48.5,838.6074,58.5,842.6074,54.5,838.6074" style="stroke:#000000;stroke-width:1.0;"/><line style="stroke:#000000;stroke-width:1.0;" x1="52.5" x2="147" y1="838.6074" y2="838.6074"/><text fill="#000000" font-family="sans-serif" font-size="13" lengthAdjust="spacing" textLength="64" x="77" y="833.8652">IP packets</text><rect fill="#EEEEEE" height="3" style="stroke:#EEEEEE;stroke-width:1.0;" width="1058" x="0" y="867.2627"/><line style="stroke:#000000;stroke-width:1.0;" x1="0" x2="1058" y1="867.2627" y2="867.2627"/><line style="stroke:#000000;stroke-width:1.0;" x1="0" x2="1058" y1="870.2627" y2="870.2627"/><rect fill="#EEEEEE" height="23.3105" style="stroke:#000000;stroke-width:2.0;" width="146" x="456" y="856.6074"/><text fill="#000000" font-family="sans-serif" font-size="13" font-weight="bold" lengthAdjust="spacing" textLength="128" x="462" y="873.1758">Stop mobile bridge</text><polygon fill="#000000" points="602,907.2285,592,911.2285,602,915.2285,598,911.2285" style="stroke:#000000;stroke-width:1.0;"/><line style="stroke:#000000;stroke-width:1.0;" x1="596" x2="945" y1="911.2285" y2="911.2285"/><text fill="#000000" font-family="sans-serif" font-size="13" lengthAdjust="spacing" textLength="117" x="822" y="906.4863">StopMobileBridge()</text><path d="M500.5,926.2285 L574.5,926.2285 L574.5,933.5391 L564.5,943.5391 L500.5,943.5391 L500.5,926.2285 " fill="#EEEEEE" style="stroke:#000000;stroke-width:1.5;"/><rect fill="none" height="60.6211" style="stroke:#000000;stroke-width:1.5;" width="547.5" x="500.5" y="926.2285"/><text fill="#000000" font-family="sans-serif" font-size="13" font-weight="bold" lengthAdjust="spacing" textLength="29" x="515.5" y="939.7969">loop</text><text fill="#000000" font-family="sans-serif" font-size="11" font-weight="bold" lengthAdjust="spacing" textLength="156" x="589.5" y="938.8633">[until the end of transports]</text><polygon fill="#000000" points="934,960.8496,944,964.8496,934,968.8496,938,964.8496" style="stroke:#000000;stroke-width:1.0;"/><line style="stroke:#000000;stroke-width:1.0;" x1="591" x2="940" y1="964.8496" y2="964.8496"/><text fill="#000000" font-family="sans-serif" font-size="13" lengthAdjust="spacing" textLength="79" x="598" y="960.1074">Disconnect()</text><polygon fill="#000000" points="602,974.8496,592,978.8496,602,982.8496,598,978.8496" style="stroke:#000000;stroke-width:1.0;"/><line style="stroke:#000000;stroke-width:1.0;stroke-dasharray:2.0,2.0;" x1="596" x2="945" y1="978.8496" y2="978.8496"/><polygon fill="#000000" points="388,1011.1602,378,1015.1602,388,1019.1602,384,1015.1602" style="stroke:#000000;stroke-width:1.0;"/><line style="stroke:#000000;stroke-width:1.0;" x1="382" x2="580" y1="1015.1602" y2="1015.1602"/><text fill="#000000" font-family="sans-serif" font-size="13" lengthAdjust="spacing" textLength="47" x="527" y="1010.418">destroy</text><polygon fill="#000000" points="164,1040.4707,154,1044.4707,164,1048.4707,160,1044.4707" style="stroke:#000000;stroke-width:1.0;"/><line style="stroke:#000000;stroke-width:1.0;" x1="158" x2="580" y1="1044.4707" y2="1044.4707"/><text fill="#000000" font-family="sans-serif" font-size="13" lengthAdjust="spacing" textLength="36" x="538" y="1039.7285">stop()</text><polygon fill="#000000" points="934,1054.4707,944,1058.4707,934,1062.4707,938,1058.4707" style="stroke:#000000;stroke-width:1.0;"/><line style="stroke:#000000;stroke-width:1.0;stroke-dasharray:2.0,2.0;" x1="586" x2="940" y1="1058.4707" y2="1058.4707"/><polygon fill="#000000" points="53.5,1083.7813,43.5,1087.7813,53.5,1091.7813,49.5,1087.7813" style="stroke:#000000;stroke-width:1.0;"/><line style="stroke:#000000;stroke-width:1.0;" x1="47.5" x2="945" y1="1087.7813" y2="1087.7813"/><text fill="#000000" font-family="sans-serif" font-size="13" lengthAdjust="spacing" textLength="33" x="906" y="1083.0391">close</text><!--SRC=[dLHTJzim57tthx3O2vMsyJ5ugTfAjAMi4jdGqcdF9hbDh2PsPhkm3l7VTnqdgPC6DjONYE-vzvpxQRZ9O4W3USype5F5umG8qHik2gPOJZNyt8A8802jMG9N6Ky4ZRc2o70fF636rv1n0Q5Hp42oeq9gcV6Oa94skmmcf0urvoon7a-4ukyZo-0NgpxixvlSYdWcbG15BvlNAOisYNAcJ2hwxlHoSRsuRkotI5rPpiykPejfQNbs520IDB-PuvOdgPdjcEXXAMrXXgdUABRpoGfyN4kLlvdkHyeDXBdSG0_VdAdDZGAVYKK63K-ln-i9DSqGwCTHIZvwSLv6rZtk1JVgwkVGjfrU-BN9tHIzh7dv8DNktyhTNzXdyan69zN44HnDmoDUC67ewliNEXhfdJQGJoPKgXYTpavRcAExkddBlCWW1s6OdVCZoZHjRADHtUCcpcKxZbidjqtNRlWmG315LpUBZUD5st6bcD25L2PW0WkbhDigE7Jxr7OBiQueqtCAUvpEJmaPZsbeq9FcRkFlIurqF2QaoU_3n1PhI6K1Wk2KyGUiktrgOuBfqCNoipqsMx681tktO4emRuI7mP1g2p-0X445MI4aKe1l7gqpehNchi3rvv3UW6dgfZs9bSQCQqFbcfezXcHI5dGh3C-eIO62Y3k8BiTC2e4txxY1BEFt56_Vrk310vRRJxartlUWgyHBKa62ea0rilTn1mJ5489DR_5_5LUs8j1up58cRBdtUWPbT-Vmm2EWQ8rrol0y9nJ_fMnhKgduxtASotRRiMfH-2ucnQLCKfVXYKiCksSpwzFcI3zN0I3ko6fD5gP_LOc1s3dsPC4Cg_Yid58lxcyrHiixMk3X0EnJsD5ofwJ1FeNIcezr-MTGeImrff986pAs37MQ3dUGsAF22zfraRHLZd9kS8JAWONz21qaZU0Ownd9l8crLZ9t9VvRCAVCvjwEq4cWojCkhrSZj_GuyA_llDjdMRJMUV0VkpBdEghMvN09okdURq8CcBdSaHYw6rzV35bW5CyS7Xu4pueCXuSiogI65WNUiZy0]--></g></svg>